<mxfile host="65bd71144e">
    <diagram id="spaKL6NTC4pt9zbaQ05e" name="Page-1">
        <mxGraphModel dx="726" dy="680" grid="1" gridSize="10" guides="1" tooltips="1" connect="1" arrows="1" fold="1" page="1" pageScale="1" pageWidth="850" pageHeight="1100" background="none" math="0" shadow="0">
            <root>
                <mxCell id="0"/>
                <mxCell id="1" parent="0"/>
                <mxCell id="23" style="edgeStyle=orthogonalEdgeStyle;rounded=0;orthogonalLoop=1;jettySize=auto;html=1;entryX=0.5;entryY=0;entryDx=0;entryDy=0;fontSize=16;" parent="1" source="2" target="12" edge="1">
                    <mxGeometry relative="1" as="geometry"/>
                </mxCell>
                <mxCell id="132" style="edgeStyle=orthogonalEdgeStyle;rounded=0;orthogonalLoop=1;jettySize=auto;html=1;entryX=0.078;entryY=1;entryDx=0;entryDy=0;entryPerimeter=0;fontSize=14;" parent="1" source="2" target="131" edge="1">
                    <mxGeometry relative="1" as="geometry"/>
                </mxCell>
                <mxCell id="2" value="&lt;font style=&quot;font-size: 16px&quot;&gt;&lt;b&gt;HOME&lt;/b&gt;&lt;/font&gt;" style="rounded=1;arcSize=10;whiteSpace=wrap;html=1;align=center;" parent="1" vertex="1">
                    <mxGeometry x="30" y="200" width="120" height="40" as="geometry"/>
                </mxCell>
                <mxCell id="8" value="Sections" style="swimlane;childLayout=stackLayout;horizontal=1;startSize=30;horizontalStack=0;rounded=1;fontSize=14;fontStyle=1;strokeWidth=2;resizeParent=0;resizeLast=1;shadow=0;dashed=0;align=center;" parent="1" vertex="1">
                    <mxGeometry x="185" y="280" width="110" height="70" as="geometry"/>
                </mxCell>
                <mxCell id="9" value="About" style="align=center;strokeColor=none;fillColor=none;spacingLeft=4;fontSize=14;verticalAlign=middle;resizable=0;rotatable=0;part=1;" parent="8" vertex="1">
                    <mxGeometry y="30" width="110" height="40" as="geometry"/>
                </mxCell>
                <mxCell id="29" style="edgeStyle=orthogonalEdgeStyle;rounded=0;orthogonalLoop=1;jettySize=auto;html=1;exitX=0.5;exitY=1;exitDx=0;exitDy=0;fontSize=14;" parent="8" source="9" target="9" edge="1">
                    <mxGeometry relative="1" as="geometry"/>
                </mxCell>
                <mxCell id="12" value="Sections" style="swimlane;childLayout=stackLayout;horizontal=1;startSize=30;horizontalStack=0;rounded=1;fontSize=14;fontStyle=1;strokeWidth=2;resizeParent=0;resizeLast=1;shadow=0;dashed=0;align=center;" parent="1" vertex="1">
                    <mxGeometry x="30" y="280" width="120" height="140" as="geometry"/>
                </mxCell>
                <mxCell id="13" value="Hero&#10;Specils&#10;About&#10;Quote&#10;GoogleMap" style="align=center;fillColor=none;spacingLeft=4;fontSize=14;verticalAlign=middle;resizable=0;rotatable=0;part=1;spacingTop=0;spacing=4;strokeColor=none;rounded=0;" parent="12" vertex="1">
                    <mxGeometry y="30" width="120" height="110" as="geometry"/>
                </mxCell>
                <mxCell id="33" style="edgeStyle=orthogonalEdgeStyle;rounded=0;orthogonalLoop=1;jettySize=auto;html=1;exitX=0.5;exitY=1;exitDx=0;exitDy=0;entryX=0.5;entryY=0;entryDx=0;entryDy=0;fontSize=14;" parent="1" source="17" target="8" edge="1">
                    <mxGeometry relative="1" as="geometry"/>
                </mxCell>
                <mxCell id="134" style="edgeStyle=orthogonalEdgeStyle;rounded=0;orthogonalLoop=1;jettySize=auto;html=1;entryX=0.273;entryY=1.05;entryDx=0;entryDy=0;entryPerimeter=0;fontSize=14;" parent="1" source="17" target="131" edge="1">
                    <mxGeometry relative="1" as="geometry"/>
                </mxCell>
                <mxCell id="17" value="&lt;font style=&quot;font-size: 16px&quot;&gt;&lt;b&gt;ABOUT&lt;/b&gt;&lt;/font&gt;" style="rounded=1;arcSize=10;whiteSpace=wrap;html=1;align=center;" parent="1" vertex="1">
                    <mxGeometry x="180" y="200" width="120" height="40" as="geometry"/>
                </mxCell>
                <mxCell id="92" style="edgeStyle=orthogonalEdgeStyle;rounded=0;orthogonalLoop=1;jettySize=auto;html=1;exitX=0.5;exitY=0;exitDx=0;exitDy=0;fontSize=14;" parent="1" source="19" edge="1">
                    <mxGeometry relative="1" as="geometry">
                        <mxPoint x="460" y="210" as="targetPoint"/>
                    </mxGeometry>
                </mxCell>
                <mxCell id="102" style="edgeStyle=orthogonalEdgeStyle;rounded=0;orthogonalLoop=1;jettySize=auto;html=1;fontSize=14;" parent="1" source="19" edge="1">
                    <mxGeometry relative="1" as="geometry">
                        <mxPoint x="470" y="290" as="targetPoint"/>
                        <Array as="points">
                            <mxPoint x="470" y="270"/>
                            <mxPoint x="470" y="270"/>
                        </Array>
                    </mxGeometry>
                </mxCell>
                <mxCell id="135" style="edgeStyle=orthogonalEdgeStyle;rounded=0;orthogonalLoop=1;jettySize=auto;html=1;entryX=0.571;entryY=1.1;entryDx=0;entryDy=0;entryPerimeter=0;fontSize=14;" parent="1" source="19" target="131" edge="1">
                    <mxGeometry relative="1" as="geometry"/>
                </mxCell>
                <mxCell id="19" value="&lt;font style=&quot;font-size: 16px&quot;&gt;&lt;b&gt;MENU&lt;/b&gt;&lt;/font&gt;" style="rounded=1;arcSize=10;whiteSpace=wrap;html=1;align=center;" parent="1" vertex="1">
                    <mxGeometry x="410" y="200" width="120" height="40" as="geometry"/>
                </mxCell>
                <mxCell id="101" style="edgeStyle=orthogonalEdgeStyle;rounded=0;orthogonalLoop=1;jettySize=auto;html=1;fontSize=14;" parent="1" source="20" target="99" edge="1">
                    <mxGeometry relative="1" as="geometry"/>
                </mxCell>
                <mxCell id="136" style="edgeStyle=orthogonalEdgeStyle;rounded=0;orthogonalLoop=1;jettySize=auto;html=1;entryX=0.909;entryY=1.075;entryDx=0;entryDy=0;entryPerimeter=0;fontSize=14;" parent="1" source="20" target="131" edge="1">
                    <mxGeometry relative="1" as="geometry"/>
                </mxCell>
                <mxCell id="20" value="&lt;font style=&quot;font-size: 16px&quot;&gt;&lt;b&gt;CONTACT&lt;/b&gt;&lt;/font&gt;" style="rounded=1;arcSize=10;whiteSpace=wrap;html=1;align=center;" parent="1" vertex="1">
                    <mxGeometry x="670" y="200" width="120" height="40" as="geometry"/>
                </mxCell>
                <mxCell id="48" value="" style="edgeStyle=orthogonalEdgeStyle;startArrow=none;endArrow=none;rounded=0;targetPortConstraint=eastwest;sourcePortConstraint=northsouth;fontSize=14;exitX=0;exitY=0.5;exitDx=0;exitDy=0;" parent="1" source="140" target="139" edge="1">
                    <mxGeometry relative="1" as="geometry">
                        <mxPoint x="495" y="300" as="sourcePoint"/>
                        <Array as="points">
                            <mxPoint x="530" y="290"/>
                            <mxPoint x="495" y="290"/>
                            <mxPoint x="495" y="260"/>
                        </Array>
                        <mxPoint x="450" y="290" as="targetPoint"/>
                    </mxGeometry>
                </mxCell>
                <mxCell id="89" style="edgeStyle=orthogonalEdgeStyle;rounded=0;orthogonalLoop=1;jettySize=auto;html=1;entryX=0.5;entryY=0;entryDx=0;entryDy=0;fontSize=14;" parent="1" target="77" edge="1">
                    <mxGeometry relative="1" as="geometry">
                        <mxPoint x="390" y="310" as="sourcePoint"/>
                    </mxGeometry>
                </mxCell>
                <mxCell id="90" style="edgeStyle=orthogonalEdgeStyle;rounded=0;orthogonalLoop=1;jettySize=auto;html=1;entryX=0.5;entryY=0;entryDx=0;entryDy=0;fontSize=14;" parent="1" target="79" edge="1">
                    <mxGeometry relative="1" as="geometry">
                        <mxPoint x="560" y="320" as="sourcePoint"/>
                    </mxGeometry>
                </mxCell>
                <mxCell id="53" style="edgeStyle=orthogonalEdgeStyle;rounded=0;orthogonalLoop=1;jettySize=auto;html=1;exitX=0.5;exitY=1;exitDx=0;exitDy=0;fontSize=14;" parent="1" edge="1">
                    <mxGeometry relative="1" as="geometry">
                        <mxPoint x="560" y="320" as="sourcePoint"/>
                        <mxPoint x="560" y="320" as="targetPoint"/>
                    </mxGeometry>
                </mxCell>
                <mxCell id="77" value="Menu" style="whiteSpace=wrap;html=1;" parent="1" vertex="1">
                    <mxGeometry x="340" y="360" width="100" height="40" as="geometry"/>
                </mxCell>
                <mxCell id="79" value="Menu" style="whiteSpace=wrap;html=1;" parent="1" vertex="1">
                    <mxGeometry x="510" y="360" width="100" height="40" as="geometry"/>
                </mxCell>
                <mxCell id="80" value="" style="html=1;curved=1;noEdgeStyle=1;orthogonal=1;" parent="1" edge="1">
                    <mxGeometry relative="1" as="geometry">
                        <mxPoint x="398" y="402" as="sourcePoint"/>
                        <mxPoint x="440" y="440" as="targetPoint"/>
                        <Array as="points">
                            <mxPoint x="397.5" y="402"/>
                            <mxPoint x="440" y="428"/>
                        </Array>
                    </mxGeometry>
                </mxCell>
                <mxCell id="81" value="" style="html=1;curved=1;noEdgeStyle=1;orthogonal=1;" parent="1" edge="1">
                    <mxGeometry relative="1" as="geometry">
                        <mxPoint x="383" y="402" as="sourcePoint"/>
                        <mxPoint x="340" y="440" as="targetPoint"/>
                        <Array as="points">
                            <mxPoint x="382.5" y="402"/>
                            <mxPoint x="340" y="428"/>
                        </Array>
                    </mxGeometry>
                </mxCell>
                <mxCell id="82" value="Menu Category" style="whiteSpace=wrap;html=1;" parent="1" vertex="1">
                    <mxGeometry x="300" y="440" width="100" height="40" as="geometry"/>
                </mxCell>
                <mxCell id="84" value="Toggle Category" style="whiteSpace=wrap;html=1;" parent="1" vertex="1">
                    <mxGeometry x="360" y="530" width="100" height="40" as="geometry"/>
                </mxCell>
                <mxCell id="87" value="" style="html=1;curved=1;noEdgeStyle=1;orthogonal=1;" parent="1" edge="1">
                    <mxGeometry relative="1" as="geometry">
                        <mxPoint x="350" y="480" as="sourcePoint"/>
                        <mxPoint x="392.5" y="530" as="targetPoint"/>
                        <Array as="points">
                            <mxPoint x="350" y="492"/>
                            <mxPoint x="392.5" y="518"/>
                        </Array>
                    </mxGeometry>
                </mxCell>
                <mxCell id="88" value="" style="html=1;curved=1;noEdgeStyle=1;orthogonal=1;entryX=0.5;entryY=1;entryDx=0;entryDy=0;exitX=1;exitY=0.5;exitDx=0;exitDy=0;" parent="1" source="84" edge="1">
                    <mxGeometry relative="1" as="geometry">
                        <mxPoint x="460" y="590" as="sourcePoint"/>
                        <mxPoint x="470" y="480" as="targetPoint"/>
                        <Array as="points">
                            <mxPoint x="490" y="520"/>
                        </Array>
                    </mxGeometry>
                </mxCell>
                <mxCell id="99" value="Sections" style="swimlane;childLayout=stackLayout;horizontal=1;startSize=30;horizontalStack=0;rounded=1;fontSize=14;fontStyle=1;strokeWidth=2;resizeParent=0;resizeLast=1;shadow=0;dashed=0;align=center;" parent="1" vertex="1">
                    <mxGeometry x="670" y="270" width="120" height="100" as="geometry"/>
                </mxCell>
                <mxCell id="100" value="ContactInfo&#10;GoogleMap&#10;ContactFrom" style="align=center;fillColor=none;spacingLeft=4;fontSize=14;verticalAlign=middle;resizable=0;rotatable=0;part=1;spacingTop=0;spacing=4;strokeColor=none;rounded=0;" parent="99" vertex="1">
                    <mxGeometry y="30" width="120" height="70" as="geometry"/>
                </mxCell>
                <mxCell id="112" style="edgeStyle=orthogonalEdgeStyle;rounded=0;orthogonalLoop=1;jettySize=auto;html=1;entryX=0.5;entryY=1;entryDx=0;entryDy=0;fontSize=14;" parent="1" source="107" target="84" edge="1">
                    <mxGeometry relative="1" as="geometry"/>
                </mxCell>
                <mxCell id="107" value="Chinese menu json file" style="whiteSpace=wrap;html=1;" parent="1" vertex="1">
                    <mxGeometry x="360" y="610" width="100" height="40" as="geometry"/>
                </mxCell>
                <mxCell id="108" value="" style="edgeStyle=elbowEdgeStyle;elbow=vertical;html=1;rounded=0;" parent="1" source="104" target="107" edge="1">
                    <mxGeometry relative="1" as="geometry"/>
                </mxCell>
                <mxCell id="105" value="Thai menu json file" style="whiteSpace=wrap;html=1;" parent="1" vertex="1">
                    <mxGeometry x="510" y="550" width="100" height="40" as="geometry"/>
                </mxCell>
                <mxCell id="106" value="" style="edgeStyle=elbowEdgeStyle;elbow=vertical;html=1;rounded=0;" parent="1" source="104" target="105" edge="1">
                    <mxGeometry relative="1" as="geometry">
                        <Array as="points">
                            <mxPoint x="490" y="670"/>
                        </Array>
                    </mxGeometry>
                </mxCell>
                <mxCell id="104" value="Data .Json files" style="whiteSpace=wrap;html=1;" parent="1" vertex="1">
                    <mxGeometry x="440" y="690" width="100" height="40" as="geometry"/>
                </mxCell>
                <mxCell id="116" style="edgeStyle=orthogonalEdgeStyle;rounded=0;orthogonalLoop=1;jettySize=auto;html=1;entryX=0.5;entryY=0;entryDx=0;entryDy=0;fontSize=14;" parent="1" target="105" edge="1">
                    <mxGeometry relative="1" as="geometry">
                        <mxPoint x="605" y="480" as="sourcePoint"/>
                    </mxGeometry>
                </mxCell>
                <mxCell id="115" value="" style="html=1;curved=1;noEdgeStyle=1;orthogonal=1;" parent="1" edge="1">
                    <mxGeometry relative="1" as="geometry">
                        <mxPoint x="567.5" y="400" as="sourcePoint"/>
                        <mxPoint x="610" y="438" as="targetPoint"/>
                        <Array as="points">
                            <mxPoint x="567.5" y="412"/>
                            <mxPoint x="600" y="420"/>
                            <mxPoint x="610" y="438"/>
                        </Array>
                    </mxGeometry>
                </mxCell>
                <mxCell id="118" value="Footer" style="rounded=1;arcSize=10;whiteSpace=wrap;html=1;align=center;strokeColor=#f0f0f0;fontSize=14;" parent="1" vertex="1">
                    <mxGeometry x="30" y="750" width="770" height="40" as="geometry"/>
                </mxCell>
                <mxCell id="126" value="Get all&amp;nbsp;&lt;b&gt;Chinese Menu &lt;/b&gt;datas&amp;nbsp;from jason file" style="ellipse;whiteSpace=wrap;html=1;align=center;rounded=0;strokeColor=#f0f0f0;fontSize=14;" parent="1" vertex="1">
                    <mxGeometry x="190" y="510" width="130" height="130" as="geometry"/>
                </mxCell>
                <mxCell id="127" value="Get all&amp;nbsp;&lt;b&gt;Thai Menu&lt;/b&gt;&amp;nbsp;datas from jason file" style="ellipse;whiteSpace=wrap;html=1;align=center;rounded=0;strokeColor=#f0f0f0;fontSize=14;" parent="1" vertex="1">
                    <mxGeometry x="650" y="520" width="130" height="130" as="geometry"/>
                </mxCell>
                <mxCell id="131" value="Navigation Bar" style="rounded=1;arcSize=10;whiteSpace=wrap;html=1;align=center;strokeColor=#f0f0f0;fontSize=14;" parent="1" vertex="1">
                    <mxGeometry x="30" y="120" width="770" height="40" as="geometry"/>
                </mxCell>
                <mxCell id="138" style="edgeStyle=orthogonalEdgeStyle;rounded=0;orthogonalLoop=1;jettySize=auto;html=1;entryX=0.5;entryY=0;entryDx=0;entryDy=0;fontSize=14;" parent="1" source="137" target="131" edge="1">
                    <mxGeometry relative="1" as="geometry"/>
                </mxCell>
                <mxCell id="137" value="&lt;b&gt;&lt;font style=&quot;font-size: 20px&quot;&gt;NEW CHINA ONLINE MENU&lt;/font&gt;&lt;/b&gt;" style="rounded=1;arcSize=10;whiteSpace=wrap;html=1;align=center;strokeColor=#f0f0f0;fontSize=14;" parent="1" vertex="1">
                    <mxGeometry x="255" y="20" width="320" height="70" as="geometry"/>
                </mxCell>
                <mxCell id="139" value="&lt;b style=&quot;font-size: 14px&quot;&gt;Chinese Menu&lt;/b&gt;" style="whiteSpace=wrap;html=1;" parent="1" vertex="1">
                    <mxGeometry x="330" y="270" width="120" height="40" as="geometry"/>
                </mxCell>
                <mxCell id="146" value="" style="edgeStyle=orthogonalEdgeStyle;rounded=0;orthogonalLoop=1;jettySize=auto;html=1;" parent="1" source="140" target="79" edge="1">
                    <mxGeometry relative="1" as="geometry"/>
                </mxCell>
                <mxCell id="140" value="&lt;b style=&quot;font-size: 14px&quot;&gt;Thai Menu&lt;/b&gt;" style="whiteSpace=wrap;html=1;" parent="1" vertex="1">
                    <mxGeometry x="500" y="270" width="120" height="40" as="geometry"/>
                </mxCell>
                <mxCell id="148" value="&lt;span style=&quot;font-family: &amp;#34;helvetica&amp;#34;&quot;&gt;Menu Items&lt;/span&gt;" style="whiteSpace=wrap;html=1;" parent="1" vertex="1">
                    <mxGeometry x="420" y="440" width="100" height="40" as="geometry"/>
                </mxCell>
                <mxCell id="149" value="&lt;span style=&quot;font-family: &amp;#34;helvetica&amp;#34;&quot;&gt;Get Menu Items&lt;/span&gt;" style="whiteSpace=wrap;html=1;" parent="1" vertex="1">
                    <mxGeometry x="560" y="440" width="100" height="40" as="geometry"/>
                </mxCell>
            </root>
        </mxGraphModel>
    </diagram>
</mxfile>